<svg width="30" height="30" viewBox="0 0 30 30" fill="none" xmlns="http://www.w3.org/2000/svg">
<path d="M15 5.74389C13.638 4.49152 11.8552 3.79644 10.005 3.79639C9.02565 3.79741 8.05619 3.99209 7.1524 4.36922C6.2486 4.74636 5.42831 5.2985 4.73873 5.99389C1.79748 8.94764 1.79873 13.5676 4.74123 16.5089L13.9062 25.6739C14.1187 26.0476 14.5287 26.2889 15 26.2889C15.1935 26.287 15.3838 26.2398 15.5558 26.151C15.7277 26.0622 15.8764 25.9343 15.99 25.7776L25.2587 16.5089C28.2012 13.5664 28.2012 8.94764 25.2562 5.98889C24.567 5.29478 23.7474 4.74376 22.8444 4.36749C21.9415 3.99122 20.9732 3.79714 19.995 3.79639C18.1448 3.79669 16.3621 4.49173 15 5.74389ZM23.4887 7.75639C25.4425 9.72014 25.4437 12.7876 23.4912 14.7414L15 23.2326L6.50873 14.7414C4.55623 12.7876 4.55748 9.72014 6.50623 7.76139C7.45623 6.81639 8.69873 6.29639 10.005 6.29639C11.3112 6.29639 12.5487 6.81639 13.4912 7.75889L14.1162 8.38389C14.2322 8.50007 14.37 8.59224 14.5216 8.65513C14.6733 8.71802 14.8358 8.75039 15 8.75039C15.1641 8.75039 15.3267 8.71802 15.4783 8.65513C15.63 8.59224 15.7677 8.50007 15.8837 8.38389L16.5087 7.75889C18.3987 5.87264 21.6012 5.87764 23.4887 7.75639Z" fill="black"/>
</svg>
