<svg width="30" height="30" viewBox="0 0 30 30" fill="none" xmlns="http://www.w3.org/2000/svg">
<path d="M27.1787 15.4137L15.9287 2.91369C15.455 2.38619 14.545 2.38619 14.0712 2.91369L2.82123 15.4137C2.6593 15.5932 2.55301 15.8159 2.51529 16.0546C2.47756 16.2934 2.51002 16.538 2.60873 16.7587C2.80873 17.2099 3.25623 17.4999 3.74998 17.4999H6.24998V26.2499C6.24998 26.5815 6.38168 26.8994 6.6161 27.1338C6.85052 27.3682 7.16846 27.4999 7.49998 27.4999H11.25C11.5815 27.4999 11.8994 27.3682 12.1339 27.1338C12.3683 26.8994 12.5 26.5815 12.5 26.2499V21.2499H17.5V26.2499C17.5 26.5815 17.6317 26.8994 17.8661 27.1338C18.1005 27.3682 18.4185 27.4999 18.75 27.4999H22.5C22.8315 27.4999 23.1494 27.3682 23.3839 27.1338C23.6183 26.8994 23.75 26.5815 23.75 26.2499V17.4999H26.25C26.4921 17.501 26.7292 17.4315 26.9325 17.3001C27.1358 17.1687 27.2965 16.981 27.395 16.7598C27.4934 16.5386 27.5254 16.2936 27.487 16.0546C27.4486 15.8156 27.3415 15.5929 27.1787 15.4137Z" fill="black"/>
</svg>
