<svg width="30" height="30" viewBox="0 0 30 30" fill="none" xmlns="http://www.w3.org/2000/svg">
<path d="M15 6.24746C12.705 6.24746 10.805 6.73371 9.22874 7.46121L4.63375 2.86621L2.86625 4.63371L7.00999 8.77746C3.74374 11.2175 2.58125 14.55 2.56375 14.6025L2.4325 14.9975L2.56375 15.3925C2.59125 15.4775 5.45875 23.75 15 23.75C17.2937 23.75 19.1925 23.2637 20.7687 22.5362L25.3662 27.1337L27.1337 25.3662L22.9875 21.22C26.255 18.78 27.4187 15.4475 27.4362 15.395L27.5675 15L27.4362 14.605C27.4087 14.52 24.5412 6.24746 15 6.24746ZM15.0537 8.74996H15C16.6576 8.74996 18.2473 9.40844 19.4194 10.5805C20.5915 11.7526 21.25 13.3424 21.25 15C21.2437 16.2198 20.8728 17.41 20.185 18.4175L19.2837 17.5162C19.7464 16.7575 19.994 15.8873 20 14.9987C20 14.4062 19.8762 13.8425 19.6812 13.3125C19.5668 13.4482 19.4243 13.5576 19.2635 13.6331C19.1028 13.7087 18.9276 13.7485 18.75 13.75C18.4185 13.75 18.1005 13.6183 17.8661 13.3838C17.6317 13.1494 17.5 12.8315 17.5 12.5C17.5 11.9512 17.86 11.4975 18.3525 11.33C17.4419 10.4809 16.245 10.0056 15 9.99871C14.0812 9.99871 13.2262 10.2712 12.4812 10.7137L11.5812 9.81371C12.5662 9.15746 13.7275 8.74996 15 8.74996H14.9462L15 8.74746L15.0537 8.74996ZM5.09249 14.9987C5.22124 14.705 5.43499 14.2662 5.74374 13.7625L13.0775 21.0962C7.81124 20.2875 5.65374 16.2937 5.09249 14.9987ZM16.6512 21.1337L7.30125 11.7837C7.75622 11.3277 8.25345 10.9158 8.78624 10.5537L18.855 20.6225C18.1398 20.8679 17.4014 21.0392 16.6512 21.1337Z" fill="black"/>
</svg>
