<svg width="30" height="30" viewBox="0 0 30 30" fill="none" xmlns="http://www.w3.org/2000/svg">
<path d="M15.1751 2.5C12.7028 2.5 10.286 3.23311 8.23043 4.60663C6.17481 5.98015 4.57266 7.93238 3.62656 10.2165C2.68046 12.5005 2.43292 15.0139 2.91524 17.4386C3.39755 19.8634 4.58806 22.0907 6.33622 23.8388C8.08438 25.587 10.3117 26.7775 12.7364 27.2598C15.1612 27.7421 17.6745 27.4946 19.9586 26.5485C22.2427 25.6024 24.1949 24.0002 25.5684 21.9446C26.9419 19.889 27.6751 17.4723 27.6751 15C27.6751 11.6848 26.3581 8.50537 24.0139 6.16117C21.6697 3.81696 18.4903 2.5 15.1751 2.5ZM15.1751 25C13.1972 25 11.2638 24.4135 9.61935 23.3147C7.97486 22.2159 6.69314 20.6541 5.93626 18.8268C5.17938 16.9996 4.98135 14.9889 5.3672 13.0491C5.75305 11.1093 6.70546 9.32746 8.10399 7.92893C9.50251 6.53041 11.2843 5.578 13.2242 5.19215C15.164 4.8063 17.1746 5.00433 19.0019 5.7612C20.8291 6.51808 22.3909 7.79981 23.4898 9.4443C24.5886 11.0888 25.1751 13.0222 25.1751 15C25.1751 17.6522 24.1215 20.1957 22.2461 22.0711C20.3708 23.9464 17.8272 25 15.1751 25Z" fill="black"/>
<path d="M20.175 12.5C20.175 11.5054 19.78 10.5516 19.0767 9.84835C18.3734 9.14509 17.4196 8.75 16.425 8.75H10.175V21.25H12.675V16.25H14.5L17.8375 21.25H20.8375L17.4 16.1C18.1929 15.8865 18.8938 15.4187 19.3951 14.7684C19.8964 14.118 20.1704 13.3211 20.175 12.5ZM16.425 13.75H12.675V11.25H16.425C16.7566 11.25 17.0745 11.3817 17.3089 11.6161C17.5434 11.8505 17.675 12.1685 17.675 12.5C17.675 12.8315 17.5434 13.1495 17.3089 13.3839C17.0745 13.6183 16.7566 13.75 16.425 13.75Z" fill="black"/>
</svg>
