<svg width="30" height="30" viewBox="0 0 30 30" fill="none" xmlns="http://www.w3.org/2000/svg">
<path d="M15 6.24746C12.705 6.24746 10.805 6.73371 9.22874 7.46121L4.63375 2.86621L2.86625 4.63371L7.00999 8.77871C3.74374 11.2187 2.58125 14.5512 2.56375 14.6037L2.4325 14.9987L2.56375 15.3937C2.59125 15.4775 5.45875 23.75 15 23.75C17.2937 23.75 19.1925 23.2637 20.7687 22.5362L25.3662 27.1337L27.1337 25.3662L22.9875 21.22C26.255 18.78 27.4187 15.4475 27.4362 15.395L27.5675 15L27.4362 14.605C27.4087 14.52 24.5412 6.24746 15 6.24746ZM5.09249 15C5.22124 14.705 5.43499 14.2675 5.74374 13.7637L13.0775 21.0975C7.81124 20.2875 5.65374 16.2937 5.09249 15ZM16.6512 21.1337L7.30125 11.7825C7.7563 11.3272 8.25352 10.9162 8.78624 10.555L18.855 20.6225C18.1398 20.8679 17.4014 21.0392 16.6512 21.1337ZM21.2112 19.4437L19.285 17.5175C19.7275 16.7725 20 15.9175 20 14.9987C20 14.4062 19.8762 13.8437 19.6812 13.3125C19.5669 13.4484 19.4244 13.5578 19.2636 13.6334C19.1028 13.7089 18.9276 13.7487 18.75 13.75C18.4185 13.75 18.1005 13.6183 17.8661 13.3838C17.6317 13.1494 17.5 12.8315 17.5 12.5C17.5 11.9512 17.86 11.4975 18.3525 11.33C17.4415 10.4814 16.2449 10.0062 15 9.99871C14.0812 9.99871 13.2262 10.2712 12.4812 10.7137L11.1437 9.37621C12.3844 8.95038 13.6883 8.73779 15 8.74746C21.6887 8.74746 24.2812 13.5562 24.9075 14.9975C24.1061 16.7902 22.8274 18.3283 21.2112 19.4437Z" fill="black"/>
</svg>
