<svg width="30" height="30" viewBox="0 0 30 30" fill="none" xmlns="http://www.w3.org/2000/svg">
<path d="M6.25 15H5V25C5 25.663 5.26339 26.2989 5.73223 26.7678C6.20107 27.2366 6.83696 27.5 7.5 27.5H13.75V15H6.25ZM22.5 15H16.25V27.5H22.5C23.163 27.5 23.7989 27.2366 24.2678 26.7678C24.7366 26.2989 25 25.663 25 25V15H22.5ZM23.4888 8.75C23.6721 8.14223 23.7602 7.50974 23.75 6.875C23.75 4.4625 21.7875 2.5 19.375 2.5C17.3475 2.5 15.9937 4.3525 15.12 6.35625C14.2587 4.4625 12.8363 2.5 10.625 2.5C8.2125 2.5 6.25 4.4625 6.25 6.875C6.25 7.62 6.34875 8.23625 6.51125 8.75H2.5V13.75H13.75V11.25H16.25V13.75H27.5V8.75H23.4888ZM8.75 6.875C8.75 5.84125 9.59125 5 10.625 5C11.735 5 12.7675 6.90625 13.3725 8.75H10C9.5325 8.75 8.75 8.75 8.75 6.875ZM19.375 5C20.4088 5 21.25 5.84125 21.25 6.875C21.25 8.75 20.4675 8.75 20 8.75H16.9037C17.5412 6.78 18.4675 5 19.375 5Z" fill="white"/>
</svg>
